<?xml version="1.0" standalone="no"?><!DOCTYPE svg PUBLIC "-//W3C//DTD SVG 1.1//EN" "http://www.w3.org/Graphics/SVG/1.1/DTD/svg11.dtd" ><svg xmlns="http://www.w3.org/2000/svg"><metadata></metadata><defs><font id="URW:Eurostile-Bol:2014" horiz-adv-x="1836"><font-face font-family="Eurostile" font-weight="700" font-stretch="normal" units-per-em="2048" panose-1="0 0 0 0 0 0 0 0 0 0" ascent="1638" descent="-410" x-height="0" bbox="-6 -12 1716 1377" underline-thickness="206" underline-position="-210" unicode-range="U+003e-0072" /><missing-glyph horiz-adv-x="512" d="M51 0 l0 1365 l410 0 l0 -1365 l-410 0 ZM410 51 l0 1263 l-308 0 l0 -1263 l308 0 Z" /><glyph glyph-name="greater" unicode="&gt;" d="M69 156 l0 227 l645 311 l-645 312 l0 225 l887 -441 l0 -193 l-887 -441 Z" /><glyph glyph-name="A" unicode="a" d="M946 262 l-589 0 l-85 -262 l-274 0 l454 1365 l389 0 l461 -1365 l-269 0 l-87 262 ZM886 457 l-236 708 l-232 -708 l468 0 Z" /><glyph glyph-name="C" unicode="c" d="M969 487 l259 0 q0 -31 0 -47 q0 -186 -29 -255 q-48 -112 -175 -161 q-65 -26 -170 -31 q-89 -5 -195 -5 q-215 0 -293 21 q-171 47 -237 194 q-27 59 -37 135.5 q-10 76.5 -14 241.5 q-3 132 -3 199 q0 216 27 322 q34 131 157 204 q71 43 166 57.5 q95 14.5 305 14.5 q132 0 194.5 -8 q62.5 -8 115.5 -32 q126 -56 160 -212 q12 -58 16 -214 l-259 0 q-4 135 -27 176 q-22 37 -72.5 51 q-50.5 14 -163.5 14 q-130 0 -195.5 -12 q-65.5 -12 -95.5 -41 q-48 -48 -54 -189 q-2 -35 -2 -221 q0 -197 8 -275 q8 -78 34 -122 q29 -50 108 -67 q53 -12 162 -12 q153 0 220 22 q52 18 71.5 59.5 q19.5 41.5 19.5 134.5 q0 19 -1 58 Z" /><glyph glyph-name="E" unicode="e" d="M382 1147 l0 -352 l637 0 l0 -192 l-637 0 l0 -385 l678 0 l0 -218 l-940 0 l0 1365 l934 0 l0 -218 l-672 0 Z" /><glyph glyph-name="F" unicode="f" d="M382 1147 l0 -368 l609 0 l0 -217 l-609 0 l0 -562 l-262 0 l0 1365 l904 0 l0 -218 l-642 0 Z" /><glyph glyph-name="I" unicode="i" d="M382 1365 l0 -1365 l-262 0 l0 1365 l262 0 Z" /><glyph glyph-name="L" unicode="l" d="M382 1365 l0 -1135 l637 0 l0 -230 l-899 0 l0 1365 l262 0 Z" /><glyph glyph-name="M" unicode="m" d="M1716 1365 l0 -1365 l-259 0 l0 744 q0 93 10 304 l5 101 l-8 0 l-31 -95 q-72 -223 -95 -284 l-300 -770 l-236 0 l-303 764 q-25 63 -97 284 l-31 94 l-8 0 l5 -99 q11 -213 11 -299 l0 -744 l-259 0 l0 1365 l422 0 l244 -632 q25 -67 96 -284 l31 -94 l9 0 l29 94 q67 212 94 282 l240 634 l431 0 Z" /><glyph glyph-name="N" unicode="n" d="M1387 1365 l0 -1365 l-440 0 l-391 749 q-29 55 -135 294 l-43 98 l-10 0 l3 -90 q6 -149 6 -268 l0 -783 l-257 0 l0 1365 l437 0 l356 -692 q49 -96 161 -334 l52 -112 l9 0 l-3 88 q-5 145 -5 264 l0 786 l260 0 Z" /><glyph glyph-name="O" unicode="o" d="M695 1377 q147 0 226.5 -10 q79.5 -10 138.5 -36 q180 -78 219 -312 q14 -81 14 -324 q0 -251 -13 -335 q-21 -141 -78 -216 q-97 -128 -301 -147 q-102 -9 -237 -9 q-152 0 -239 14 q-87 14 -150 48 q-81 44 -125 114 q-44 70 -62 184 q-13 81 -13 300 q0 267 14 359 q23 149 90 227 q100 116 283 133 q101 10 233 10 ZM670 1152 q-123 0 -176.5 -10.5 q-53.5 -10.5 -86.5 -42.5 q-63 -59 -65 -250 q-1 -83 -1 -222 q0 -165 10 -237 q17 -121 97 -153 q35 -14 87.5 -19 q52.5 -5 173.5 -5 q152 0 209 25 q87 37 104 203 q5 51 5 252 q0 219 -10 284 q-17 119 -97 152 q-34 14 -84.5 18.5 q-50.5 4.5 -165.5 4.5 Z" /><glyph glyph-name="P" unicode="p" d="M120 0 l0 1365 l553 0 q156 0 211 -4 q185 -13 265 -145 q36 -60 47 -123 q15 -89 15 -204 q0 -191 -52 -289 q-42 -81 -115.5 -116.5 q-73.5 -35.5 -204.5 -39.5 q-46 -1 -152 -3 l-305 0 l0 -441 l-262 0 ZM382 667 l295 0 q143 0 189 20 q44 18 61.5 64.5 q17.5 46.5 17.5 142.5 q0 112 -15 162 q-15 50 -55 70 q-42 21 -172 21 l-321 0 l0 -480 Z" /><glyph glyph-name="Q" unicode="q" d="M1409 183 l-107 -156 l-131 90 q-67 -69 -166 -99 q-97 -30 -314 -30 q-166 0 -249 11 q-83 11 -151 42 q-153 71 -194 259 q-22 102 -22 338 q0 277 14 369 q22 147 90 227 q100 116 283 133 q101 10 233 10 q144 0 226 -10.5 q82 -10.5 139 -35.5 q180 -79 219 -312 q14 -81 14 -338 q0 -182 -5 -257.5 q-5 -75.5 -22 -142.5 l143 -98 ZM632 486 l108 156 l282 -191 q5 74 5 98 l0 138 q0 228 -10 290 q-18 118 -97 152 q-33 14 -84 18.5 q-51 4.5 -166 4.5 q-123 0 -176.5 -11 q-53.5 -11 -86.5 -42 q-63 -59 -65 -250 q-1 -82 -1 -224 q0 -147 6 -205.5 q6 -58.5 25 -106.5 q25 -63 90 -81.5 q65 -18.5 265 -18.5 q93 0 131.5 10 q38.5 10 91.5 48 l-318 215 Z" /><glyph glyph-name="R" unicode="r" d="M120 0 l0 1365 l670 0 q196 0 289 -51 q83 -45 119 -127.5 q36 -82.5 36 -228.5 q0 -134 -19.5 -207.5 q-19.5 -73.5 -66.5 -114.5 q-48 -41 -161 -63 l0 -10 q236 -14 232 -265 l0 -298 l-265 0 l0 246 q0 118 -50 165 q-46 44 -155 44 l-367 0 l0 -455 l-262 0 ZM382 678 l367 0 q118 0 166 41 q31 26 41.5 65 q10.5 39 10.5 127 q0 105 -13 143 q-16 47 -58.5 66.5 q-42.5 19.5 -129.5 19.5 l-384 0 l0 -462 Z" /><glyph glyph-name="T" unicode="t" d="M667 1135 l0 -1135 l-262 0 l0 1135 l-394 0 l0 230 l1061 0 l0 -231 l-405 1 Z" /><glyph glyph-name="U" unicode="u" d="M991 1365 l262 0 l0 -908 q0 -126 -16.5 -201.5 q-16.5 -75.5 -55.5 -126.5 q-60 -81 -178 -117 q-81 -24 -318 -24 q-151 0 -232 10 q-81 10 -141 35 q-111 47 -153 135 q-42 88 -42 274 l0 923 l262 0 l0 -923 q0 -114 23 -155 q24 -42 86 -58 q62 -16 200 -16 q152 0 210 19.5 q58 19.5 77 77.5 q16 47 16 142 l0 913 Z" /><glyph glyph-name="V" unicode="v" d="M994 1365 l274 0 l-440 -1365 l-398 0 l-436 1365 l269 0 l256 -773 q36 -111 107 -372 l7 0 q74 268 108 371 l253 774 Z" /><glyph glyph-name="Y" unicode="y" d="M1254 1365 l-506 -844 l0 -521 l-262 0 l0 521 l-492 844 l300 0 l206 -360 q20 -34 88 -166 l28 -55 l8 0 l29 55 q67 129 89 166 l208 360 l304 0 Z" /><glyph glyph-name="e" unicode="e" d="M730 306 l230 0 q0 -16 0 -28 q0 -151 -81 -216 q-63 -49 -157 -62 q-82 -11 -175 -11 q-146 0 -231 20.5 q-85 20.5 -138 67.5 q-54 49 -76.5 142 q-22.5 93 -22.5 265 q0 156 19 241.5 q19 85.5 66 137.5 q50 56 135.5 80.5 q85.5 24.5 230.5 24.5 q134 0 215 -22.5 q81 -22.5 127 -71.5 q49 -53 68.5 -133 q19.5 -80 19.5 -227 l0 -77 l-647 0 q-1 -25 -1 -36 q0 -146 42.5 -193 q42.5 -47 174.5 -47 q126 0 162.5 26.5 q36.5 26.5 38.5 118.5 ZM732 580 q0 25 -1 37 q-1 104 -33 139 q-21 23 -59 32 q-38 9 -113 9 q-94 0 -135 -16 q-41 -16 -59 -60 q-15 -37 -17 -141 l417 0 Z" /><glyph glyph-name="m" unicode="m" d="M113 956 l232 0 l-6 -147 l5 -1 q31 72 82 107 q77 52 208 52 q260 0 289 -177 l5 0 q30 79 79 115 q82 62 224 62 q211 0 284 -116 q43 -67 43 -218 l0 -633 l-232 0 l0 583 q0 97 -20 139 q-28 58 -142 58 q-153 0 -193 -81 q-21 -41 -21 -140 l0 -559 l-232 0 l0 592 q0 100 -15 130 q-30 58 -145 58 q-114 0 -163.5 -52 q-49.5 -52 -49.5 -174 l0 -554 l-232 0 l0 956 Z" /><glyph glyph-name="o" unicode="o" d="M539 967 q172 0 250 -26 q134 -44 173 -192 q21 -81 21 -248 q0 -207 -28 -302 q-36 -120 -126.5 -165 q-90.5 -45 -296.5 -45 q-191 0 -281 38 q-103 44 -137.5 142 q-34.5 98 -34.5 344 q0 188 33 272 q40 106 130 144 q90 38 297 38 ZM531 787 q-146 0 -179 -51 q-37 -58 -37 -249 q0 -130 10.5 -190.5 q10.5 -60.5 36.5 -87.5 q39 -40 166 -40 q119 0 165 36 q30 22 42 88.5 q12 66.5 12 204.5 q0 188 -38 238.5 q-38 50.5 -178 50.5 Z" /><glyph glyph-name="r" unicode="r" d="M113 956 l232 0 l-14 -134 l4 -1 q42 75 85 105 q65 45 174 45 q185 0 233 -144 q19 -54 19 -241 l-216 0 q0 19 0 53 q0 87 -24.5 118.5 q-24.5 31.5 -93.5 31.5 q-113 0 -150 -87 q-17 -39 -17 -139 l0 -563 l-232 0 l0 956 Z" /></font>
</defs>
</svg>
